<svg xmlns="http://www.w3.org/2000/svg" viewBox="0 0 512 512">
  <defs>
    <linearGradient id="bg" x1="0" y1="0" x2="0" y2="1">
      <stop offset="0" stop-color="#4a7cc4"/>
      <stop offset="1" stop-color="#2c5592"/>
    </linearGradient>
  </defs>
  <rect x="16" y="16" width="480" height="480" rx="108" fill="url(#bg)"/>
  <g fill="none" stroke="#fff" stroke-width="34" stroke-linecap="round" stroke-linejoin="round">
    <path d="M148 132 V318 Q148 362 192 362 H214"/>
    <path d="M148 236 H214"/>
  </g>
  <circle cx="148" cy="122" r="40" fill="#fff"/>
  <rect x="244" y="216" width="164" height="40" rx="20" fill="#fff"/>
  <path d="M262 314 H392 Q420 314 420 342 V384 Q420 412 392 412 H312 L276 442 L280 412 H262 Q234 412 234 384 V342 Q234 314 262 314 Z" fill="#f2b84b"/>
  <rect x="270" y="346" width="110" height="18" rx="9" fill="#2c5592" opacity=".85"/>
  <rect x="270" y="374" width="70" height="14" rx="7" fill="#2c5592" opacity=".85"/>
</svg>
